#!OML:ASF \\sashay\E\Suitcase\Project 1\Capture day 1\Session 1\Male1.ASF
:FULLY-SPECIFIED
:DEGREES
337
root 1.30478 17.5638 -24.8657 4.66146 -0.908046 1.05559
lowerback 1.04351 1.5625 -5.68074
upperback -1.48098 2.0461 3.69052
thorax -2.4605 1.16477 6.98116
lowerneck -17.0806 -1.68216 -6.37329
upperneck 22.8453 1.39414 -7.40211
head 10.2278 -0.794875 -1.36984
rclavicle 1.58779e-014 -1.51076e-014
rhumerus -21.9064 -16.7291 -64.9293
rradius 25.6342
rwrist -9.22256
rhand -18.7656 30.8726
rfingers 7.12502
rthumb 7.53143 1.02671
lclavicle 1.58779e-014 -1.51076e-014
lhumerus -39.5247 12.1931 82.9906
lradius 32.0067
lwrist -8.69782
lhand -0.29252 41.3637
lfingers 7.12502
lthumb 25.3102 69.7044
rfemur -0.422645 -5.54 17.2867
rtibia 52.691
rfoot 4.31196 -12.422
rtoes 32.8569
lfemur -18.9183 0.298682 -26.0662
ltibia 21.9804
lfoot -11.7237 -1.66898
ltoes 2.93193
338
root 1.31296 17.5665 -24.7576 4.49486 -0.908322 1.39476
lowerback 1.21178 1.64113 -6.10672
upperback -1.40415 2.13205 3.58184
thorax -2.50277 1.21352 7.10397
lowerneck -17.1518 -1.58338 -6.25678
upperneck 22.8397 1.49773 -7.36327
head 10.2384 -0.733164 -1.36131
rclavicle 1.09332e-014 -1.03368e-014
rhumerus -22.5517 -17.4095 -64.606
rradius 25.4434
rwrist -9.02939
rhand -17.6531 30.541
rfingers 7.12502
rthumb 8.6051 0.736382
lclavicle 1.09332e-014 -1.03368e-014
lhumerus -39.3322 11.347 83.3276
lradius 32.5912
lwrist -7.94055
lhand -0.0900185 40.7076
lfingers 7.12502
lthumb 25.5041 69.0207
rfemur -1.49627 -5.65132 16.9387
rtibia 54.0973
rfoot 3.02057 -12.7585
rtoes 32.4899
lfemur -18.2569 0.386092 -26.5206
ltibia 21.8134
lfoot -11.6003 -1.5227
ltoes 3.67776
339
root 1.33094 17.5595 -24.6433 4.30704 -0.367637 2.04344
lowerback 1.38805 1.44775 -6.60454
upperback -1.25144 1.84791 3.36051
thorax -2.4048 1.06808 7.16542
lowerneck -17.4976 -1.69972 -6.05587
upperneck 22.7295 1.35341 -7.56643
head 10.265 -0.808784 -1.48891
rclavicle -9.24349e-015 -9.54166e-015
rhumerus -23.0129 -17.2929 -64.7043
rradius 25.4065
rwrist -9.1401
rhand -17.9329 30.1913
rfingers 7.12502
rthumb 8.33505 0.375709
lclavicle -9.24349e-015 -9.54166e-015
lhumerus -38.6969 11.1003 83.4336
lradius 32.6998
lwrist -7.89631
lhand -0.411662 42.2727
lfingers 7.12502
lthumb 25.196 70.6295
rfemur -2.23334 -6.3227 16.1088
rtibia 55.3802
rfoot 1.66086 -12.6328
rtoes 32.5705
lfemur -17.5298 -0.0696751 -27.3439
ltibia 21.7837
lfoot -12.156 -1.49831
ltoes 3.60806
340
root 1.33807 17.5664 -24.5361 4.21014 0.121247 1.69152
lowerback 1.37823 1.2577 -6.28983
upperback -1.13384 1.60591 3.55126
thorax -2.23052 0.932779 7.19906
lowerneck -17.14 -1.69387 -6.78692
upperneck 22.29 1.28835 -6.75996
head 10.0275 -0.778843 -1.07868
rclavicle 1.04859e-014 1.98785e-014
rhumerus -23.5571 -17.558 -64.5162
rradius 25.3681
rwrist -8.81298
rhand -18.2733 29.7191
rfingers 7.12502
rthumb 8.00653 -0.109244
lclavicle 1.04859e-014 1.98785e-014
lhumerus -38.4341 10.612 83.7726
lradius 33.1746
lwrist -7.39924
lhand -0.596862 41.5873
lfingers 7.12502
lthumb 25.0186 69.969
rfemur -3.25437 -6.69865 16.6599
rtibia 56.4241
rfoot -0.223892 -12.2339
rtoes 29.6763
lfemur -17.0261 -0.546245 -26.9789
ltibia 21.788
lfoot -12.2396 -1.33415
ltoes 3.79466
341
root 1.34243 17.5606 -24.4412 4.1195 0.339906 1.83957
lowerback 1.72263 1.10624 -6.26412
upperback -1.22972 1.38014 3.3411
thorax -2.47895 0.829183 6.96327
lowerneck -17.1567 -1.70525 -6.05856
upperneck 22.5945 1.26206 -7.42832
head 10.1466 -0.821849 -1.44456
rclavicle 2.6339e-015 -1.43125e-014
rhumerus -24.2291 -18.2337 -64.5443
rradius 25.0514
rwrist -8.94224
rhand -17.1818 29.9913
rfingers 7.12502
rthumb 9.05996 0.205864
lclavicle 2.6339e-015 -1.43125e-014
lhumerus -38.4261 10.2459 83.4276
lradius 33.572
lwrist -6.97538
lhand -1.30178 40.6789
lfingers 7.12502
lthumb 24.3429 69.153
rfemur -4.35558 -6.76627 16.602
rtibia 57.3502
rfoot -0.927303 -12.1008
rtoes 28.6274
lfemur -16.7555 -0.816434 -27.1907
ltibia 21.9439
lfoot -12.2098 -1.49629
ltoes 5.14587
342
root 1.35182 17.5473 -24.3356 3.81293 0.630741 1.7485
lowerback 1.91121 1.01234 -6.15154
upperback -0.976411 1.24949 3.36828
thorax -2.29733 0.746988 6.93185
lowerneck -17.329 -1.74178 -6.33885
upperneck 22.2259 1.15966 -6.97259
head 10.0388 -0.826413 -1.24577
rclavicle -1.42131e-014 -2.62396e-014
rhumerus -24.3107 -19.1022 -64.3577
rradius 24.3287
rwrist -8.24235
rhand -17.1287 29.8601
rfingers 7.12502
rthumb 9.11115 0.0768666
lclavicle -1.42131e-014 -2.62396e-014
lhumerus -37.693 10.2844 83.4397
lradius 33.5502
lwrist -7.00528
lhand -1.27888 41.9457
lfingers 7.12502
lthumb 24.3649 70.4168
rfemur -5.0308 -6.83261 16.7368
rtibia 58.0848
rfoot -2.35809 -11.8083
rtoes 27.7436
lfemur -16.1442 -0.831292 -27.1586
ltibia 22.2552
lfoot -12.7055 -1.57159
ltoes 5.53309
343
root 1.35716 17.5448 -24.2303 3.6092 0.805309 2.00288
lowerback 2.16297 0.925995 -6.46078
upperback -0.951844 1.111 3.35371
thorax -2.39752 0.685269 7.09864
lowerneck -17.3269 -1.71505 -6.37834
upperneck 22.2869 1.21046 -6.96235
head 10.0611 -0.808032 -1.22988
rclavicle 9.93923e-016 1.11319e-014
rhumerus -25.135 -18.6744 -64.2314
rradius 24.5027
rwrist -8.84613
rhand -16.7189 29.3188
rfingers 7.12502
rthumb 9.50653 -0.446751
lclavicle 9.93923e-016 1.11319e-014
lhumerus -37.5679 10.2466 83.4012
lradius 33.915
lwrist -6.9469
lhand -0.77845 41.6125
lfingers 7.12502
lthumb 24.8445 70.0183
rfemur -5.92284 -6.80173 16.5278
rtibia 58.7924
rfoot -4.22471 -11.1169
rtoes 24.1997
lfemur -15.5129 -1.20375 -27.45
ltibia 22.4336
lfoot -12.9796 -1.27528
ltoes 6.31006
344
root 1.35893 17.5309 -24.1417 3.63527 1.28682 2.13689
lowerback 2.19094 0.78359 -6.68184
upperback -0.833751 0.912805 3.34706
thorax -2.26038 0.579706 7.22886
lowerneck -17.4654 -1.65882 -6.33184
upperneck 22.2286 1.30662 -7.04397
head 10.0683 -0.76932 -1.25374
rclavicle 1.03865e-014 2.06736e-014
rhumerus -25.4527 -19.3863 -64.0712
rradius 24.1216
rwrist -8.28415
rhand -16.8155 29.2865
rfingers 7.12502
rthumb 9.41339 -0.483257
lclavicle 1.03865e-014 2.06736e-014
lhumerus -37.0456 10.018 83.5321
lradius 34.2509
lwrist -6.98714
lhand -1.10854 39.8009
lfingers 7.12502
lthumb 24.5282 68.25
rfemur -7.0772 -6.98017 16.5235
rtibia 59.4384
rfoot -5.41207 -10.5835
rtoes 23.1915
lfemur -15.3704 -1.7566 -27.6279
ltibia 22.7514
lfoot -13.4403 -0.995747
ltoes 5.54537
345
root 1.36457 17.5236 -24.0312 3.47426 1.35931 2.61569
lowerback 2.3472 0.762268 -7.15273
upperback -0.852857 0.855728 3.17483
thorax -2.36412 0.561459 7.31872
lowerneck -17.0805 -1.72555 -6.46299
upperneck 22.0135 1.15205 -6.88705
head 9.91479 -0.816007 -1.18935
rclavicle 4.47266e-016 7.15625e-015
rhumerus -26.2467 -19.7875 -63.8745
rradius 23.8311
rwrist -7.66717
rhand -17.319 28.7291
rfingers 7.12502
rthumb 8.92751 -1.06202
lclavicle 4.47266e-016 7.15625e-015
lhumerus -37.094 9.49656 83.5294
lradius 34.8477
lwrist -6.58112
lhand -1.52838 41.0515
lfingers 7.12502
lthumb 24.1257 69.5546
rfemur -7.99981 -6.81111 16.0128
rtibia 59.9718
rfoot -7.25742 -9.85066
rtoes 21.0882
lfemur -14.8083 -1.61632 -28.2177
ltibia 22.9489
lfoot -13.8953 -1.24376
ltoes 6.30678
